<svg version="1.1" xmlns="http://www.w3.org/2000/svg" xmlns:xlink="http://www.w3.org/1999/xlink" width="1864" height="836"><defs><clipPath id="RKDmUnpJdSXU"><path fill="none" stroke="none" d=" M 0 0 L 1864 0 L 1864 836 L 0 836 L 0 0 Z"/></clipPath></defs><g transform="scale(1,1)" clip-path="url(#RKDmUnpJdSXU)"><g><rect fill="rgb(255,255,255)" stroke="none" x="0" y="0" width="1864" height="836" fill-opacity="1"/><path fill="none" stroke="rgb(0,0,0)" paint-order="fill stroke markers" d=" M 1093.2138494347546 472.4254631696657 C 1093.2138494347546 562.7574529091211 1019.9853031153547 635.9859992285211 929.6533133758992 635.9859992285211 C 839.3213236364437 635.9859992285211 766.0927773170437 562.7574529091211 766.0927773170437 472.4254631696657 C 766.0927773170437 382.0934734302103 839.3213236364437 308.8649271108103 929.6533133758992 308.8649271108103 C 1019.9853031153547 308.8649271108103 1093.2138494347546 382.0934734302103 1093.2138494347546 472.4254631696657 Z" stroke-opacity="0.6980392156862745" stroke-linecap="round" stroke-linejoin="round" stroke-miterlimit="10" stroke-width="2.5"/><text fill="rgb(0,0,0)" stroke="none" font-family="geogebra-sans-serif, sans-serif" font-size="16px" font-style="normal" font-weight="normal" text-decoration="normal" x="847" y="353" text-anchor="start" dominant-baseline="alphabetic" fill-opacity="1">c</text><text fill="none" stroke="rgb(255,255,255)" font-family="geogebra-sans-serif, sans-serif" font-size="16px" font-style="normal" font-weight="normal" text-decoration="normal" x="847" y="353" text-anchor="start" dominant-baseline="alphabetic" stroke-opacity="1" stroke-linejoin="bevel" stroke-miterlimit="10" stroke-width="3">c</text><text fill="rgb(0,0,0)" stroke="none" font-family="geogebra-sans-serif, sans-serif" font-size="16px" font-style="normal" font-weight="normal" text-decoration="normal" x="847" y="353" text-anchor="start" dominant-baseline="alphabetic" fill-opacity="1">c</text><path fill="none" stroke="rgb(0,0,0)" paint-order="fill stroke markers" d=" M 1093.5345226343493 308.8649271108103 C 1093.5345226343493 399.37401976808127 1020.1624060331703 472.74613636926034 929.6533133758992 472.74613636926034 C 839.1442207186282 472.74613636926034 765.7721041174491 399.37401976808127 765.7721041174491 308.8649271108103 C 765.7721041174491 218.35583445353933 839.1442207186282 144.98371785236026 929.6533133758992 144.98371785236026 C 1020.1624060331703 144.98371785236026 1093.5345226343493 218.35583445353933 1093.5345226343493 308.8649271108103 Z" stroke-opacity="0.6980392156862745" stroke-linecap="round" stroke-linejoin="round" stroke-miterlimit="10" stroke-width="2.5"/><text fill="rgb(0,0,0)" stroke="none" font-family="geogebra-sans-serif, sans-serif" font-size="16px" font-style="normal" font-weight="normal" text-decoration="normal" x="847" y="189" text-anchor="start" dominant-baseline="alphabetic" fill-opacity="1">d</text><text fill="none" stroke="rgb(255,255,255)" font-family="geogebra-sans-serif, sans-serif" font-size="16px" font-style="normal" font-weight="normal" text-decoration="normal" x="847" y="189" text-anchor="start" dominant-baseline="alphabetic" stroke-opacity="1" stroke-linejoin="bevel" stroke-miterlimit="10" stroke-width="3">d</text><text fill="rgb(0,0,0)" stroke="none" font-family="geogebra-sans-serif, sans-serif" font-size="16px" font-style="normal" font-weight="normal" text-decoration="normal" x="847" y="189" text-anchor="start" dominant-baseline="alphabetic" fill-opacity="1">d</text><path fill="none" stroke="rgb(0,0,0)" paint-order="fill stroke markers" d=" M 1235.7678663284846 390.9661826922535 C 1235.7678663284846 481.6967009162955 1162.2162488393103 555.2483184054697 1071.4857306152683 555.2483184054697 C 980.7552123912261 555.2483184054697 907.2035949020519 481.6967009162955 907.2035949020519 390.9661826922535 C 907.2035949020519 300.23566446821144 980.7552123912261 226.6840469790373 1071.4857306152683 226.6840469790373 C 1162.2162488393103 226.6840469790373 1235.7678663284846 300.23566446821144 1235.7678663284846 390.9661826922535 Z" stroke-opacity="0.6980392156862745" stroke-linecap="round" stroke-linejoin="round" stroke-miterlimit="10" stroke-width="2.5"/><text fill="rgb(0,0,0)" stroke="none" font-family="geogebra-sans-serif, sans-serif" font-size="16px" font-style="normal" font-weight="normal" text-decoration="normal" x="989" y="271" text-anchor="start" dominant-baseline="alphabetic" fill-opacity="1">e</text><text fill="none" stroke="rgb(255,255,255)" font-family="geogebra-sans-serif, sans-serif" font-size="16px" font-style="normal" font-weight="normal" text-decoration="normal" x="989" y="271" text-anchor="start" dominant-baseline="alphabetic" stroke-opacity="1" stroke-linejoin="bevel" stroke-miterlimit="10" stroke-width="3">e</text><text fill="rgb(0,0,0)" stroke="none" font-family="geogebra-sans-serif, sans-serif" font-size="16px" font-style="normal" font-weight="normal" text-decoration="normal" x="989" y="271" text-anchor="start" dominant-baseline="alphabetic" fill-opacity="1">e</text><path fill="none" stroke="rgb(0,0,0)" paint-order="fill stroke markers" d=" M 1233.2114546289479 555.2464150878254 C 1233.2114546289479 645.0018107703563 1160.4503301467812 717.7629352525228 1070.6949344642503 717.7629352525228 C 980.9395387817192 717.7629352525228 908.1784142995527 645.0018107703563 908.1784142995527 555.2464150878254 C 908.1784142995527 465.4910194052944 980.9395387817192 392.729894923128 1070.6949344642503 392.729894923128 C 1160.4503301467812 392.729894923128 1233.2114546289479 465.4910194052944 1233.2114546289479 555.2464150878254 Z" stroke-opacity="0.6980392156862745" stroke-linecap="round" stroke-linejoin="round" stroke-miterlimit="10" stroke-width="2.5"/><text fill="rgb(0,0,0)" stroke="none" font-family="geogebra-sans-serif, sans-serif" font-size="16px" font-style="normal" font-weight="normal" text-decoration="normal" x="989" y="437" text-anchor="start" dominant-baseline="alphabetic" fill-opacity="1">f</text><text fill="none" stroke="rgb(255,255,255)" font-family="geogebra-sans-serif, sans-serif" font-size="16px" font-style="normal" font-weight="normal" text-decoration="normal" x="989" y="437" text-anchor="start" dominant-baseline="alphabetic" stroke-opacity="1" stroke-linejoin="bevel" stroke-miterlimit="10" stroke-width="3">f</text><text fill="rgb(0,0,0)" stroke="none" font-family="geogebra-sans-serif, sans-serif" font-size="16px" font-style="normal" font-weight="normal" text-decoration="normal" x="989" y="437" text-anchor="start" dominant-baseline="alphabetic" fill-opacity="1">f</text><path fill="none" stroke="rgb(0,0,0)" paint-order="fill stroke markers" d=" M 1094.6432269847955 635.9859992285211 C 1094.6432269847955 727.1074123906144 1020.7747265379926 800.9759128374171 929.6533133758992 800.9759128374171 C 838.5319002138058 800.9759128374171 764.663399767003 727.1074123906144 764.663399767003 635.9859992285211 C 764.663399767003 544.8645860664277 838.5319002138058 470.99608561962503 929.6533133758992 470.99608561962503 C 1020.7747265379926 470.99608561962503 1094.6432269847955 544.8645860664277 1094.6432269847955 635.9859992285211 Z" stroke-opacity="0.6980392156862745" stroke-linecap="round" stroke-linejoin="round" stroke-miterlimit="10" stroke-width="2.5"/><text fill="rgb(0,0,0)" stroke="none" font-family="geogebra-sans-serif, sans-serif" font-size="16px" font-style="normal" font-weight="normal" text-decoration="normal" x="847" y="515" text-anchor="start" dominant-baseline="alphabetic" fill-opacity="1">g</text><text fill="none" stroke="rgb(255,255,255)" font-family="geogebra-sans-serif, sans-serif" font-size="16px" font-style="normal" font-weight="normal" text-decoration="normal" x="847" y="515" text-anchor="start" dominant-baseline="alphabetic" stroke-opacity="1" stroke-linejoin="bevel" stroke-miterlimit="10" stroke-width="3">g</text><text fill="rgb(0,0,0)" stroke="none" font-family="geogebra-sans-serif, sans-serif" font-size="16px" font-style="normal" font-weight="normal" text-decoration="normal" x="847" y="515" text-anchor="start" dominant-baseline="alphabetic" fill-opacity="1">g</text><path fill="none" stroke="rgb(0,0,0)" paint-order="fill stroke markers" d=" M 948.9916894506476 552.7701078876063 C 948.9916894506476 642.1326350433392 876.5490478359022 714.5752766580845 787.1865206801692 714.5752766580845 C 697.8239935244363 714.5752766580845 625.3813519096909 642.1326350433392 625.3813519096909 552.7701078876063 C 625.3813519096909 463.4075807318734 697.8239935244363 390.96493911712804 787.1865206801692 390.96493911712804 C 876.5490478359022 390.96493911712804 948.9916894506476 463.4075807318734 948.9916894506476 552.7701078876063 Z" stroke-opacity="0.6980392156862745" stroke-linecap="round" stroke-linejoin="round" stroke-miterlimit="10" stroke-width="2.5"/><text fill="rgb(0,0,0)" stroke="none" font-family="geogebra-sans-serif, sans-serif" font-size="16px" font-style="normal" font-weight="normal" text-decoration="normal" x="706" y="435" text-anchor="start" dominant-baseline="alphabetic" fill-opacity="1">h</text><text fill="none" stroke="rgb(255,255,255)" font-family="geogebra-sans-serif, sans-serif" font-size="16px" font-style="normal" font-weight="normal" text-decoration="normal" x="706" y="435" text-anchor="start" dominant-baseline="alphabetic" stroke-opacity="1" stroke-linejoin="bevel" stroke-miterlimit="10" stroke-width="3">h</text><text fill="rgb(0,0,0)" stroke="none" font-family="geogebra-sans-serif, sans-serif" font-size="16px" font-style="normal" font-weight="normal" text-decoration="normal" x="706" y="435" text-anchor="start" dominant-baseline="alphabetic" fill-opacity="1">h</text><path fill="none" stroke="rgb(0,0,0)" paint-order="fill stroke markers" d=" M 951.3814321953857 390.9661826922535 C 951.3814321953857 481.29817243170885 878.1528858759857 554.5267187511089 787.8208961365302 554.5267187511089 C 697.4889063970747 554.5267187511089 624.2603600776747 481.29817243170885 624.2603600776747 390.9661826922535 C 624.2603600776747 300.63419295279806 697.4889063970747 227.40564663339808 787.8208961365302 227.40564663339808 C 878.1528858759857 227.40564663339808 951.3814321953857 300.63419295279806 951.3814321953857 390.9661826922535 Z" stroke-opacity="0.6980392156862745" stroke-linecap="round" stroke-linejoin="round" stroke-miterlimit="10" stroke-width="2.5"/><text fill="rgb(0,0,0)" stroke="none" font-family="geogebra-sans-serif, sans-serif" font-size="16px" font-style="normal" font-weight="normal" text-decoration="normal" x="706" y="271" text-anchor="start" dominant-baseline="alphabetic" fill-opacity="1">k</text><text fill="none" stroke="rgb(255,255,255)" font-family="geogebra-sans-serif, sans-serif" font-size="16px" font-style="normal" font-weight="normal" text-decoration="normal" x="706" y="271" text-anchor="start" dominant-baseline="alphabetic" stroke-opacity="1" stroke-linejoin="bevel" stroke-miterlimit="10" stroke-width="3">k</text><text fill="rgb(0,0,0)" stroke="none" font-family="geogebra-sans-serif, sans-serif" font-size="16px" font-style="normal" font-weight="normal" text-decoration="normal" x="706" y="271" text-anchor="start" dominant-baseline="alphabetic" fill-opacity="1">k</text><path fill="none" stroke="rgb(0,0,0)" paint-order="fill stroke markers" d=" M 1257.095058693205 472.4254631696657 C 1257.095058693205 653.2665455663921 1110.4943957726255 799.8672084869711 929.6533133758992 799.8672084869711 C 748.8122309791727 799.8672084869711 602.2115680585935 653.2665455663921 602.2115680585935 472.4254631696657 C 602.2115680585935 291.5843807729393 748.8122309791727 144.98371785236026 929.6533133758992 144.98371785236026 C 1110.4943957726255 144.98371785236026 1257.095058693205 291.5843807729393 1257.095058693205 472.4254631696657 Z" stroke-opacity="0.6980392156862745" stroke-linecap="round" stroke-linejoin="round" stroke-miterlimit="10" stroke-width="2.5"/><text fill="rgb(0,0,0)" stroke="none" font-family="geogebra-sans-serif, sans-serif" font-size="16px" font-style="normal" font-weight="normal" text-decoration="normal" x="765" y="214" text-anchor="start" dominant-baseline="alphabetic" fill-opacity="1">p</text><text fill="none" stroke="rgb(255,255,255)" font-family="geogebra-sans-serif, sans-serif" font-size="16px" font-style="normal" font-weight="normal" text-decoration="normal" x="765" y="214" text-anchor="start" dominant-baseline="alphabetic" stroke-opacity="1" stroke-linejoin="bevel" stroke-miterlimit="10" stroke-width="3">p</text><text fill="rgb(0,0,0)" stroke="none" font-family="geogebra-sans-serif, sans-serif" font-size="16px" font-style="normal" font-weight="normal" text-decoration="normal" x="765" y="214" text-anchor="start" dominant-baseline="alphabetic" fill-opacity="1">p</text><path fill="rgb(97,97,97)" stroke="none" paint-order="stroke fill markers" d=" M 934.6533133758992 472.4254631696657 C 934.6533133758992 475.18688691881965 932.4147371250532 477.4254631696657 929.6533133758992 477.4254631696657 C 926.8918896267452 477.4254631696657 924.6533133758992 475.18688691881965 924.6533133758992 472.4254631696657 C 924.6533133758992 469.66403942051176 926.8918896267452 467.4254631696657 929.6533133758992 467.4254631696657 C 932.4147371250532 467.4254631696657 934.6533133758992 469.66403942051176 934.6533133758992 472.4254631696657 Z" fill-opacity="1"/><path fill="none" stroke="rgb(0,0,0)" paint-order="fill stroke markers" d=" M 934.6533133758992 472.4254631696657 C 934.6533133758992 475.18688691881965 932.4147371250532 477.4254631696657 929.6533133758992 477.4254631696657 C 926.8918896267452 477.4254631696657 924.6533133758992 475.18688691881965 924.6533133758992 472.4254631696657 C 924.6533133758992 469.66403942051176 926.8918896267452 467.4254631696657 929.6533133758992 467.4254631696657 C 932.4147371250532 467.4254631696657 934.6533133758992 469.66403942051176 934.6533133758992 472.4254631696657 Z" stroke-opacity="1" stroke-linecap="round" stroke-linejoin="round" stroke-miterlimit="10"/><text fill="rgb(97,97,97)" stroke="none" font-family="geogebra-sans-serif, sans-serif" font-size="16px" font-style="normal" font-weight="normal" text-decoration="normal" x="934" y="462" text-anchor="start" dominant-baseline="alphabetic" fill-opacity="1">A</text><text fill="none" stroke="rgb(255,255,255)" font-family="geogebra-sans-serif, sans-serif" font-size="16px" font-style="normal" font-weight="normal" text-decoration="normal" x="934" y="462" text-anchor="start" dominant-baseline="alphabetic" stroke-opacity="1" stroke-linejoin="bevel" stroke-miterlimit="10" stroke-width="3">A</text><text fill="rgb(97,97,97)" stroke="none" font-family="geogebra-sans-serif, sans-serif" font-size="16px" font-style="normal" font-weight="normal" text-decoration="normal" x="934" y="462" text-anchor="start" dominant-baseline="alphabetic" fill-opacity="1">A</text><path fill="rgb(21,101,192)" stroke="none" paint-order="stroke fill markers" d=" M 934.6533133758992 308.8649271108103 C 934.6533133758992 311.62635085996425 932.4147371250532 313.8649271108103 929.6533133758992 313.8649271108103 C 926.8918896267452 313.8649271108103 924.6533133758992 311.62635085996425 924.6533133758992 308.8649271108103 C 924.6533133758992 306.10350336165635 926.8918896267452 303.8649271108103 929.6533133758992 303.8649271108103 C 932.4147371250532 303.8649271108103 934.6533133758992 306.10350336165635 934.6533133758992 308.8649271108103 Z" fill-opacity="1"/><path fill="none" stroke="rgb(0,0,0)" paint-order="fill stroke markers" d=" M 934.6533133758992 308.8649271108103 C 934.6533133758992 311.62635085996425 932.4147371250532 313.8649271108103 929.6533133758992 313.8649271108103 C 926.8918896267452 313.8649271108103 924.6533133758992 311.62635085996425 924.6533133758992 308.8649271108103 C 924.6533133758992 306.10350336165635 926.8918896267452 303.8649271108103 929.6533133758992 303.8649271108103 C 932.4147371250532 303.8649271108103 934.6533133758992 306.10350336165635 934.6533133758992 308.8649271108103 Z" stroke-opacity="1" stroke-linecap="round" stroke-linejoin="round" stroke-miterlimit="10"/><text fill="rgb(21,101,192)" stroke="none" font-family="geogebra-sans-serif, sans-serif" font-size="16px" font-style="normal" font-weight="normal" text-decoration="normal" x="934" y="299" text-anchor="start" dominant-baseline="alphabetic" fill-opacity="1">B</text><text fill="none" stroke="rgb(255,255,255)" font-family="geogebra-sans-serif, sans-serif" font-size="16px" font-style="normal" font-weight="normal" text-decoration="normal" x="934" y="299" text-anchor="start" dominant-baseline="alphabetic" stroke-opacity="1" stroke-linejoin="bevel" stroke-miterlimit="10" stroke-width="3">B</text><text fill="rgb(21,101,192)" stroke="none" font-family="geogebra-sans-serif, sans-serif" font-size="16px" font-style="normal" font-weight="normal" text-decoration="normal" x="934" y="299" text-anchor="start" dominant-baseline="alphabetic" fill-opacity="1">B</text><path fill="rgb(21,101,192)" stroke="none" paint-order="stroke fill markers" d=" M 1044.2388725353323 430.7175264746576 C 1044.2388725353323 433.4789502238115 1042.0002962844862 435.7175264746576 1039.2388725353323 435.7175264746576 C 1036.4774487861785 435.7175264746576 1034.2388725353323 433.4789502238115 1034.2388725353323 430.7175264746576 C 1034.2388725353323 427.9561027255036 1036.4774487861785 425.7175264746576 1039.2388725353323 425.7175264746576 C 1042.0002962844862 425.7175264746576 1044.2388725353323 427.9561027255036 1044.2388725353323 430.7175264746576 Z" fill-opacity="1"/><path fill="none" stroke="rgb(0,0,0)" paint-order="fill stroke markers" d=" M 1044.2388725353323 430.7175264746576 C 1044.2388725353323 433.4789502238115 1042.0002962844862 435.7175264746576 1039.2388725353323 435.7175264746576 C 1036.4774487861785 435.7175264746576 1034.2388725353323 433.4789502238115 1034.2388725353323 430.7175264746576 C 1034.2388725353323 427.9561027255036 1036.4774487861785 425.7175264746576 1039.2388725353323 425.7175264746576 C 1042.0002962844862 425.7175264746576 1044.2388725353323 427.9561027255036 1044.2388725353323 430.7175264746576 Z" stroke-opacity="1" stroke-linecap="round" stroke-linejoin="round" stroke-miterlimit="10"/><text fill="rgb(21,101,192)" stroke="none" font-family="geogebra-sans-serif, sans-serif" font-size="16px" font-style="normal" font-weight="normal" text-decoration="normal" x="1043" y="421" text-anchor="start" dominant-baseline="alphabetic" fill-opacity="1">C</text><text fill="none" stroke="rgb(255,255,255)" font-family="geogebra-sans-serif, sans-serif" font-size="16px" font-style="normal" font-weight="normal" text-decoration="normal" x="1043" y="421" text-anchor="start" dominant-baseline="alphabetic" stroke-opacity="1" stroke-linejoin="bevel" stroke-miterlimit="10" stroke-width="3">C</text><text fill="rgb(21,101,192)" stroke="none" font-family="geogebra-sans-serif, sans-serif" font-size="16px" font-style="normal" font-weight="normal" text-decoration="normal" x="1043" y="421" text-anchor="start" dominant-baseline="alphabetic" fill-opacity="1">C</text><path fill="rgb(97,97,97)" stroke="none" paint-order="stroke fill markers" d=" M 1076.4857306152683 390.9661826922535 C 1076.4857306152683 393.72760644140743 1074.2471543644222 395.9661826922535 1071.4857306152683 395.9661826922535 C 1068.7243068661144 395.9661826922535 1066.4857306152683 393.72760644140743 1066.4857306152683 390.9661826922535 C 1066.4857306152683 388.20475894309953 1068.7243068661144 385.9661826922535 1071.4857306152683 385.9661826922535 C 1074.2471543644222 385.9661826922535 1076.4857306152683 388.20475894309953 1076.4857306152683 390.9661826922535 Z" fill-opacity="1"/><path fill="none" stroke="rgb(0,0,0)" paint-order="fill stroke markers" d=" M 1076.4857306152683 390.9661826922535 C 1076.4857306152683 393.72760644140743 1074.2471543644222 395.9661826922535 1071.4857306152683 395.9661826922535 C 1068.7243068661144 395.9661826922535 1066.4857306152683 393.72760644140743 1066.4857306152683 390.9661826922535 C 1066.4857306152683 388.20475894309953 1068.7243068661144 385.9661826922535 1071.4857306152683 385.9661826922535 C 1074.2471543644222 385.9661826922535 1076.4857306152683 388.20475894309953 1076.4857306152683 390.9661826922535 Z" stroke-opacity="1" stroke-linecap="round" stroke-linejoin="round" stroke-miterlimit="10"/><text fill="rgb(97,97,97)" stroke="none" font-family="geogebra-sans-serif, sans-serif" font-size="16px" font-style="normal" font-weight="normal" text-decoration="normal" x="1075" y="381" text-anchor="start" dominant-baseline="alphabetic" fill-opacity="1">D</text><text fill="none" stroke="rgb(255,255,255)" font-family="geogebra-sans-serif, sans-serif" font-size="16px" font-style="normal" font-weight="normal" text-decoration="normal" x="1075" y="381" text-anchor="start" dominant-baseline="alphabetic" stroke-opacity="1" stroke-linejoin="bevel" stroke-miterlimit="10" stroke-width="3">D</text><text fill="rgb(97,97,97)" stroke="none" font-family="geogebra-sans-serif, sans-serif" font-size="16px" font-style="normal" font-weight="normal" text-decoration="normal" x="1075" y="381" text-anchor="start" dominant-baseline="alphabetic" fill-opacity="1">D</text><path fill="rgb(21,101,192)" stroke="none" paint-order="stroke fill markers" d=" M 1075.6949344642503 555.2464150878254 C 1075.6949344642503 558.0078388369794 1073.4563582134042 560.2464150878254 1070.6949344642503 560.2464150878254 C 1067.9335107150964 560.2464150878254 1065.6949344642503 558.0078388369794 1065.6949344642503 555.2464150878254 C 1065.6949344642503 552.4849913386714 1067.9335107150964 550.2464150878254 1070.6949344642503 550.2464150878254 C 1073.4563582134042 550.2464150878254 1075.6949344642503 552.4849913386714 1075.6949344642503 555.2464150878254 Z" fill-opacity="1"/><path fill="none" stroke="rgb(0,0,0)" paint-order="fill stroke markers" d=" M 1075.6949344642503 555.2464150878254 C 1075.6949344642503 558.0078388369794 1073.4563582134042 560.2464150878254 1070.6949344642503 560.2464150878254 C 1067.9335107150964 560.2464150878254 1065.6949344642503 558.0078388369794 1065.6949344642503 555.2464150878254 C 1065.6949344642503 552.4849913386714 1067.9335107150964 550.2464150878254 1070.6949344642503 550.2464150878254 C 1073.4563582134042 550.2464150878254 1075.6949344642503 552.4849913386714 1075.6949344642503 555.2464150878254 Z" stroke-opacity="1" stroke-linecap="round" stroke-linejoin="round" stroke-miterlimit="10"/><text fill="rgb(21,101,192)" stroke="none" font-family="geogebra-sans-serif, sans-serif" font-size="16px" font-style="normal" font-weight="normal" text-decoration="normal" x="1075" y="545" text-anchor="start" dominant-baseline="alphabetic" fill-opacity="1">E</text><text fill="none" stroke="rgb(255,255,255)" font-family="geogebra-sans-serif, sans-serif" font-size="16px" font-style="normal" font-weight="normal" text-decoration="normal" x="1075" y="545" text-anchor="start" dominant-baseline="alphabetic" stroke-opacity="1" stroke-linejoin="bevel" stroke-miterlimit="10" stroke-width="3">E</text><text fill="rgb(21,101,192)" stroke="none" font-family="geogebra-sans-serif, sans-serif" font-size="16px" font-style="normal" font-weight="normal" text-decoration="normal" x="1075" y="545" text-anchor="start" dominant-baseline="alphabetic" fill-opacity="1">E</text><path fill="rgb(97,97,97)" stroke="none" paint-order="stroke fill markers" d=" M 934.6533133758992 635.9859992285211 C 934.6533133758992 638.7474229776751 932.4147371250532 640.9859992285211 929.6533133758992 640.9859992285211 C 926.8918896267452 640.9859992285211 924.6533133758992 638.7474229776751 924.6533133758992 635.9859992285211 C 924.6533133758992 633.2245754793671 926.8918896267452 630.9859992285211 929.6533133758992 630.9859992285211 C 932.4147371250532 630.9859992285211 934.6533133758992 633.2245754793671 934.6533133758992 635.9859992285211 Z" fill-opacity="1"/><path fill="none" stroke="rgb(0,0,0)" paint-order="fill stroke markers" d=" M 934.6533133758992 635.9859992285211 C 934.6533133758992 638.7474229776751 932.4147371250532 640.9859992285211 929.6533133758992 640.9859992285211 C 926.8918896267452 640.9859992285211 924.6533133758992 638.7474229776751 924.6533133758992 635.9859992285211 C 924.6533133758992 633.2245754793671 926.8918896267452 630.9859992285211 929.6533133758992 630.9859992285211 C 932.4147371250532 630.9859992285211 934.6533133758992 633.2245754793671 934.6533133758992 635.9859992285211 Z" stroke-opacity="1" stroke-linecap="round" stroke-linejoin="round" stroke-miterlimit="10"/><text fill="rgb(97,97,97)" stroke="none" font-family="geogebra-sans-serif, sans-serif" font-size="16px" font-style="normal" font-weight="normal" text-decoration="normal" x="934" y="626" text-anchor="start" dominant-baseline="alphabetic" fill-opacity="1">F</text><text fill="none" stroke="rgb(255,255,255)" font-family="geogebra-sans-serif, sans-serif" font-size="16px" font-style="normal" font-weight="normal" text-decoration="normal" x="934" y="626" text-anchor="start" dominant-baseline="alphabetic" stroke-opacity="1" stroke-linejoin="bevel" stroke-miterlimit="10" stroke-width="3">F</text><text fill="rgb(97,97,97)" stroke="none" font-family="geogebra-sans-serif, sans-serif" font-size="16px" font-style="normal" font-weight="normal" text-decoration="normal" x="934" y="626" text-anchor="start" dominant-baseline="alphabetic" fill-opacity="1">F</text><path fill="rgb(21,101,192)" stroke="none" paint-order="stroke fill markers" d=" M 792.1865206801693 552.7701078876063 C 792.1865206801693 555.5315316367603 789.9479444293233 557.7701078876063 787.1865206801693 557.7701078876063 C 784.4250969310153 557.7701078876063 782.1865206801693 555.5315316367603 782.1865206801693 552.7701078876063 C 782.1865206801693 550.0086841384523 784.4250969310153 547.7701078876063 787.1865206801693 547.7701078876063 C 789.9479444293233 547.7701078876063 792.1865206801693 550.0086841384523 792.1865206801693 552.7701078876063 Z" fill-opacity="1"/><path fill="none" stroke="rgb(0,0,0)" paint-order="fill stroke markers" d=" M 792.1865206801693 552.7701078876063 C 792.1865206801693 555.5315316367603 789.9479444293233 557.7701078876063 787.1865206801693 557.7701078876063 C 784.4250969310153 557.7701078876063 782.1865206801693 555.5315316367603 782.1865206801693 552.7701078876063 C 782.1865206801693 550.0086841384523 784.4250969310153 547.7701078876063 787.1865206801693 547.7701078876063 C 789.9479444293233 547.7701078876063 792.1865206801693 550.0086841384523 792.1865206801693 552.7701078876063 Z" stroke-opacity="1" stroke-linecap="round" stroke-linejoin="round" stroke-miterlimit="10"/><text fill="rgb(21,101,192)" stroke="none" font-family="geogebra-sans-serif, sans-serif" font-size="16px" font-style="normal" font-weight="normal" text-decoration="normal" x="791" y="543" text-anchor="start" dominant-baseline="alphabetic" fill-opacity="1">G</text><text fill="none" stroke="rgb(255,255,255)" font-family="geogebra-sans-serif, sans-serif" font-size="16px" font-style="normal" font-weight="normal" text-decoration="normal" x="791" y="543" text-anchor="start" dominant-baseline="alphabetic" stroke-opacity="1" stroke-linejoin="bevel" stroke-miterlimit="10" stroke-width="3">G</text><text fill="rgb(21,101,192)" stroke="none" font-family="geogebra-sans-serif, sans-serif" font-size="16px" font-style="normal" font-weight="normal" text-decoration="normal" x="791" y="543" text-anchor="start" dominant-baseline="alphabetic" fill-opacity="1">G</text><path fill="rgb(97,97,97)" stroke="none" paint-order="stroke fill markers" d=" M 792.8208961365302 390.9661826922535 C 792.8208961365302 393.72760644140743 790.5823198856842 395.9661826922535 787.8208961365302 395.9661826922535 C 785.0594723873762 395.9661826922535 782.8208961365302 393.72760644140743 782.8208961365302 390.9661826922535 C 782.8208961365302 388.20475894309953 785.0594723873762 385.9661826922535 787.8208961365302 385.9661826922535 C 790.5823198856842 385.9661826922535 792.8208961365302 388.20475894309953 792.8208961365302 390.9661826922535 Z" fill-opacity="1"/><path fill="none" stroke="rgb(0,0,0)" paint-order="fill stroke markers" d=" M 792.8208961365302 390.9661826922535 C 792.8208961365302 393.72760644140743 790.5823198856842 395.9661826922535 787.8208961365302 395.9661826922535 C 785.0594723873762 395.9661826922535 782.8208961365302 393.72760644140743 782.8208961365302 390.9661826922535 C 782.8208961365302 388.20475894309953 785.0594723873762 385.9661826922535 787.8208961365302 385.9661826922535 C 790.5823198856842 385.9661826922535 792.8208961365302 388.20475894309953 792.8208961365302 390.9661826922535 Z" stroke-opacity="1" stroke-linecap="round" stroke-linejoin="round" stroke-miterlimit="10"/><text fill="rgb(97,97,97)" stroke="none" font-family="geogebra-sans-serif, sans-serif" font-size="16px" font-style="normal" font-weight="normal" text-decoration="normal" x="792" y="381" text-anchor="start" dominant-baseline="alphabetic" fill-opacity="1">H</text><text fill="none" stroke="rgb(255,255,255)" font-family="geogebra-sans-serif, sans-serif" font-size="16px" font-style="normal" font-weight="normal" text-decoration="normal" x="792" y="381" text-anchor="start" dominant-baseline="alphabetic" stroke-opacity="1" stroke-linejoin="bevel" stroke-miterlimit="10" stroke-width="3">H</text><text fill="rgb(97,97,97)" stroke="none" font-family="geogebra-sans-serif, sans-serif" font-size="16px" font-style="normal" font-weight="normal" text-decoration="normal" x="792" y="381" text-anchor="start" dominant-baseline="alphabetic" fill-opacity="1">H</text><path fill="rgb(97,97,97)" stroke="none" paint-order="stroke fill markers" d=" M 934.6533133758992 144.98371785236026 C 934.6533133758992 147.74514160151423 932.4147371250532 149.98371785236026 929.6533133758992 149.98371785236026 C 926.8918896267452 149.98371785236026 924.6533133758992 147.74514160151423 924.6533133758992 144.98371785236026 C 924.6533133758992 142.22229410320628 926.8918896267452 139.98371785236026 929.6533133758992 139.98371785236026 C 932.4147371250532 139.98371785236026 934.6533133758992 142.22229410320628 934.6533133758992 144.98371785236026 Z" fill-opacity="1"/><path fill="none" stroke="rgb(0,0,0)" paint-order="fill stroke markers" d=" M 934.6533133758992 144.98371785236026 C 934.6533133758992 147.74514160151423 932.4147371250532 149.98371785236026 929.6533133758992 149.98371785236026 C 926.8918896267452 149.98371785236026 924.6533133758992 147.74514160151423 924.6533133758992 144.98371785236026 C 924.6533133758992 142.22229410320628 926.8918896267452 139.98371785236026 929.6533133758992 139.98371785236026 C 932.4147371250532 139.98371785236026 934.6533133758992 142.22229410320628 934.6533133758992 144.98371785236026 Z" stroke-opacity="1" stroke-linecap="round" stroke-linejoin="round" stroke-miterlimit="10"/><text fill="rgb(97,97,97)" stroke="none" font-family="geogebra-sans-serif, sans-serif" font-size="16px" font-style="normal" font-weight="normal" text-decoration="normal" x="934" y="135" text-anchor="start" dominant-baseline="alphabetic" fill-opacity="1">I</text><text fill="none" stroke="rgb(255,255,255)" font-family="geogebra-sans-serif, sans-serif" font-size="16px" font-style="normal" font-weight="normal" text-decoration="normal" x="934" y="135" text-anchor="start" dominant-baseline="alphabetic" stroke-opacity="1" stroke-linejoin="bevel" stroke-miterlimit="10" stroke-width="3">I</text><text fill="rgb(97,97,97)" stroke="none" font-family="geogebra-sans-serif, sans-serif" font-size="16px" font-style="normal" font-weight="normal" text-decoration="normal" x="934" y="135" text-anchor="start" dominant-baseline="alphabetic" fill-opacity="1">I</text></g></g></svg>